<?xml version="1.0" encoding="iso-8859-1"?>
<!-- Generator: Adobe Illustrator 19.0.0, SVG Export Plug-In . SVG Version: 6.00 Build 0)  -->
<svg version="1.1" id="Layer_1" xmlns="http://www.w3.org/2000/svg" xmlns:xlink="http://www.w3.org/1999/xlink" x="0px" y="0px"
	 viewBox="0 0 427.607 427.607" style="enable-background:new 0 0 427.607 427.607;" xml:space="preserve">
<g>
	<path style="fill:#4673AA;" d="M311.182,190.5H116.412c-6.691,0-12.114-5.424-12.114-12.114v-45.771
		c0-6.691,5.424-12.114,12.114-12.114h194.771c6.691,0,12.114,5.424,12.114,12.114v45.771
		C323.297,185.076,317.873,190.5,311.182,190.5z"/>
	<path style="fill:#517EBF;" d="M321.307,427.607h-216c0,0-1.027-129.553,12.081-143.961c11.604-12.755,27.219-21.795,44.851-25.129
		c4.91-0.93,9.99-1.42,15.17-1.42h72.79c5.18,0,10.26,0.49,15.17,1.42c16.922,3.2,31.986,11.655,43.429,23.606
		C322.748,296.69,321.307,427.607,321.307,427.607z"/>
	<path style="fill:#FFD3AE;" d="M257.369,234.43v29.77c0,12.02-4.87,22.92-12.76,30.8c-7.88,7.88-18.78,12.76-30.81,12.76
		c-24.06,0-43.56-19.5-43.56-43.56v-29.77L257.369,234.43L257.369,234.43z"/>
	<path style="fill:#E5B591;" d="M257.369,234.43v24.06c-12.86,7.29-27.73,11.45-43.57,11.45s-30.7-4.16-43.56-11.45v-24.06H257.369z
		"/>
	<path style="fill:#FFD3AE;" d="M263.158,239.58c-14.1,9.49-31.08,15.03-49.36,15.03s-35.26-5.54-49.36-15.03
		c-0.19-0.13-0.39-0.26-0.58-0.4c-23.28-15.94-38.56-42.72-38.56-73.07v-22.5v-51.5c0-48.877,39.623-88.5,88.5-88.5l0,0
		c48.877,0,88.5,39.623,88.5,88.5v51.5v22.5c0,30.35-15.28,57.13-38.56,73.07C263.547,239.32,263.347,239.45,263.158,239.58z"/>
	<g>
		<path style="fill:#E5B591;" d="M166.667,142.943h35.044c6.522,0,11.81,5.287,11.81,11.81v21.123c0,5.092,4.128,9.22,9.22,9.22
			h6.748l-2.943,1.044c-7.666,2.72-16.214,0.773-21.946-4.999L166.667,142.943z"/>
	</g>
	<g>
		<path style="fill:#333333;" d="M179.798,164.046c-1.58,0-3.13-0.64-4.24-1.75c-1.12-1.12-1.76-2.67-1.76-4.25s0.64-3.12,1.76-4.24
			c1.39-1.39,3.46-2.03,5.41-1.64c0.39,0.08,0.76,0.19,1.13,0.34c0.36,0.15,0.71,0.34,1.03,0.55c0.33,0.22,0.64,0.47,0.91,0.75
			c0.28,0.28,0.53,0.58,0.75,0.91s0.4,0.68,0.55,1.04c0.15,0.36,0.27,0.74,0.34,1.12c0.08,0.39,0.12,0.78,0.12,1.17
			s-0.04,0.79-0.12,1.18c-0.07,0.38-0.19,0.76-0.34,1.12s-0.33,0.71-0.55,1.03c-0.22,0.33-0.47,0.64-0.75,0.92
			C182.928,163.407,181.378,164.046,179.798,164.046z"/>
		<path style="fill:#333333;" d="M247.798,164.046c-0.39,0-0.79-0.04-1.17-0.11c-0.38-0.08-0.76-0.2-1.12-0.35
			c-0.37-0.15-0.71-0.33-1.04-0.55c-0.33-0.22-0.64-0.47-0.91-0.74c-0.28-0.28-0.53-0.59-0.75-0.92c-0.22-0.32-0.4-0.67-0.55-1.03
			c-0.15-0.36-0.27-0.74-0.34-1.12c-0.08-0.39-0.12-0.79-0.12-1.18s0.04-0.78,0.12-1.17c0.07-0.38,0.19-0.76,0.34-1.12
			s0.33-0.71,0.55-1.04c0.22-0.33,0.47-0.63,0.75-0.91c0.27-0.28,0.58-0.53,0.91-0.75c0.33-0.21,0.67-0.4,1.04-0.55
			c0.36-0.15,0.74-0.26,1.12-0.34c1.95-0.39,4.02,0.25,5.41,1.64c0.28,0.28,0.53,0.58,0.75,0.91s0.4,0.68,0.55,1.04
			c0.15,0.36,0.27,0.74,0.34,1.12c0.08,0.39,0.12,0.78,0.12,1.17s-0.04,0.79-0.12,1.18c-0.07,0.38-0.19,0.76-0.34,1.12
			s-0.33,0.71-0.55,1.03c-0.22,0.33-0.47,0.64-0.75,0.92C250.928,163.407,249.378,164.046,247.798,164.046z"/>
	</g>
	<g>
		<path style="fill:#333333;" d="M190.734,145.943h-21.875c-3.087,0-5.59-2.503-5.59-5.59l0,0c0-3.087,2.503-5.59,5.59-5.59h21.875
			c3.087,0,5.59,2.503,5.59,5.59l0,0C196.325,143.441,193.823,145.943,190.734,145.943z"/>
		<path style="fill:#333333;" d="M258.734,145.943H236.86c-3.087,0-5.59-2.503-5.59-5.59l0,0c0-3.087,2.503-5.59,5.59-5.59h21.875
			c3.087,0,5.59,2.503,5.59,5.59l0,0C264.325,143.441,261.823,145.943,258.734,145.943z"/>
	</g>
	<path style="fill:#FFFFFF;" d="M239.033,197.607c0,2.98-0.52,5.83-1.48,8.49c-0.45,1.28-1.01,2.51-1.65,3.68
		c-4.3,7.78-12.58,13.05-22.1,13.05c-9.53,0-17.81-5.27-22.11-13.05c-0.65-1.17-1.21-2.4-1.66-3.68c-0.96-2.66-1.47-5.51-1.47-8.49
		H239.033z"/>
	<path style="fill:#333333;" d="M237.558,206.097c-0.45,1.28-1.01,2.51-1.65,3.68c-4.3,7.78-12.58,13.05-22.1,13.05
		c-9.53,0-17.81-5.27-22.11-13.05c-0.65-1.17-1.21-2.4-1.66-3.68H237.558z"/>
	<path style="fill:#517EBF;" d="M136.883,49.5c-10.127,0-18.336,8.209-18.336,18.336V74v42v78.892
		c0,15.369,12.459,27.828,27.828,27.828l0,0c4.265,0,7.722-3.457,7.722-7.722v-79.993c0-10.496,8.509-19.005,19.005-19.005h81.39
		c10.496,0,19.005,8.509,19.005,19.005v79.993c0,4.265,3.457,7.722,7.722,7.722l0,0c15.369,0,27.828-12.459,27.828-27.828V116V74
		v-6.164c0-10.127-8.209-18.336-18.336-18.336H136.883z"/>
	<path style="fill:#517EBF;" d="M237.758,0h-47.922c-6.097,0-11.039,4.942-11.039,11.039V49.5h70V11.039
		C248.798,4.942,243.855,0,237.758,0z"/>
	<path style="fill:#333333;" d="M178.798,11.039c0,0-10.49-8.539-40.49,2.461c0,0,11.5,0.5,17.5,5.5c0,0-29.5-2-51,26
		c0,0,19.652,0.5,32.076,4.5c0,0-10.076,15-1.576,26c0,0,19.48-26,43.49-26V11.039z"/>
	<path style="fill:#333333;" d="M248.798,11.039c0,0,10.49-8.539,40.49,2.461c0,0-11.5,0.5-17.5,5.5c0,0,29.5-2,51,26
		c0,0-19.652,0.5-32.076,4.5c0,0,10.076,15,1.576,26c0,0-19.48-26-43.49-26L248.798,11.039L248.798,11.039z"/>
	<g>
		<path style="fill:#FFD3AE;" d="M136.788,267.997v159.61h-40.5v-89.39C96.289,308.217,112.579,282.017,136.788,267.997z"/>
		<path style="fill:#FFD3AE;" d="M331.318,338.217v89.39h-40.5v-159.62C315.029,282.017,331.318,308.217,331.318,338.217z"/>
	</g>
	<ellipse style="fill:#F2F2F2;" cx="213.798" cy="87" rx="22.941" ry="12"/>
</g>
<g>
</g>
<g>
</g>
<g>
</g>
<g>
</g>
<g>
</g>
<g>
</g>
<g>
</g>
<g>
</g>
<g>
</g>
<g>
</g>
<g>
</g>
<g>
</g>
<g>
</g>
<g>
</g>
<g>
</g>
</svg>
